<svg width="55" height="55" viewBox="0 0 55 55" fill="none" xmlns="http://www.w3.org/2000/svg">
<g clip-path="url(#clip0_75_194)">
<path d="M1.33313 15.9005L26.356 27.2518C27.0865 27.5837 27.9125 27.5837 28.643 27.2518L53.6658 15.9005C55.4437 15.0938 55.4437 12.4072 53.6658 11.6004L28.6441 0.248092C28.2852 0.0840489 27.8952 -0.000854492 27.5006 -0.000854492C27.1059 -0.000854492 26.716 0.0840489 26.3571 0.248092L1.33313 11.5994C-0.444702 12.4061 -0.444702 15.0938 1.33313 15.9005ZM53.6669 25.3837L47.4268 22.5553L30.0631 30.4261C29.251 30.7946 28.3884 30.9815 27.5 30.9815C26.6116 30.9815 25.7501 30.7946 24.9369 30.4261L7.57434 22.5553L1.33313 25.3837C-0.444702 26.1894 -0.444702 28.875 1.33313 29.6806L26.356 41.0233C27.0865 41.3542 27.9125 41.3542 28.643 41.0233L53.6669 29.6806C55.4448 28.875 55.4448 26.1894 53.6669 25.3837V25.3837ZM53.6669 39.1123L47.4504 36.2946L30.0631 44.1761C29.251 44.5446 28.3884 44.7315 27.5 44.7315C26.6116 44.7315 25.7501 44.5446 24.9369 44.1761L7.55071 36.2946L1.33313 39.1123C-0.444702 39.9179 -0.444702 42.6035 1.33313 43.4091L26.356 54.7518C27.0865 55.0827 27.9125 55.0827 28.643 54.7518L53.6669 43.4091C55.4448 42.6035 55.4448 39.9179 53.6669 39.1123V39.1123Z" fill="#2B9CED"/>
</g>
<defs>
<clipPath id="clip0_75_194">
<rect width="55" height="55" fill="white"/>
</clipPath>
</defs>
</svg>
